<svg viewBox="0 0 192 192" fill="none" xmlns="http://www.w3.org/2000/svg" width="70"><path fill-rule="evenodd" clip-rule="evenodd" d="m103.751 5.339 65.081 39.049c4.461 2.706 7.24 7.532 7.167 12.797v78.025c0 5.265-2.706 10.091-7.24 12.797l-65.082 39.049c-2.778 1.828-8.482 3.949-15.356 0L23.24 148.007C18.78 145.301 16 140.475 16 135.21V57.185c0-5.265 2.706-10.091 7.24-12.797l65.154-39.05a14.851 14.851 0 0 1 15.357 0Zm52.976 55.605a.596.596 0 0 1 .076.303.596.596 0 0 1-.293.528L96.313 97.192a.599.599 0 0 1-.61.012L35.498 62.168a.616.616 0 0 1 0-1.056l60.192-35.428a.599.599 0 0 1 .61 0l60.209 35.035a.6.6 0 0 1 .217.225Zm-.003 16.797c.052.092.08.196.079.302V96.33a.61.61 0 0 1-.299.528l-52.6 30.425a.615.615 0 0 1-.921-.528v-18.287a.61.61 0 0 1 .311-.528L155.9 77.515a.603.603 0 0 1 .824.226Zm-.001 34.561c.053.092.08.196.08.301v18.322a.582.582 0 0 1-.299.516l-60.197 34.877a.584.584 0 0 1-.599 0l-60.203-34.877a.59.59 0 0 1-.293-.516v-18.322a.602.602 0 0 1 .603-.6.6.6 0 0 1 .3.084l59.892 34.695 59.893-34.695a.598.598 0 0 1 .823.215Zm-68.64-4.637a.588.588 0 0 1 .08.304l-.005-.006v18.292a.604.604 0 0 1-.91.528l-51.743-29.92a.61.61 0 0 1-.293-.528V78.05c0-.47.498-.763.903-.528l51.744 29.926a.584.584 0 0 1 .225.218Z" fill="#0074E4"></path></svg>