<svg viewBox="0 0 65 30" fill="none" xmlns="http://www.w3.org/2000/svg">
    <path fill-rule="evenodd" clip-rule="evenodd"
        d="M14.1464 0.344819L24.6383 6.63997C25.3574 7.07615 25.8054 7.85421 25.7936 8.70299V21.2815C25.7936 22.1303 25.3574 22.9083 24.6265 23.3445L14.1346 29.6397C13.6867 29.9344 12.7671 30.2763 11.659 29.6397L1.16708 23.3445C0.447969 22.9083 0 22.1303 0 21.2815L0 8.70299C0 7.85421 0.43618 7.07615 1.16708 6.63997L11.6708 0.344819C12.4371 -0.11494 13.3801 -0.11494 14.1464 0.344819ZM22.6868 9.30895C22.6951 9.32389 22.6994 9.34076 22.6991 9.35785C22.6994 9.37493 22.6951 9.3918 22.6868 9.40674C22.6785 9.42168 22.6664 9.43417 22.6518 9.44296L12.9473 15.1525C12.9326 15.1617 12.9157 15.1666 12.8984 15.167C12.8811 15.1673 12.864 15.163 12.8489 15.1544L3.1435 9.50633C3.07918 9.4685 3.07918 9.37392 3.1435 9.33609L12.847 3.62462C12.8619 3.61579 12.8789 3.61114 12.8962 3.61114C12.9135 3.61114 12.9305 3.61579 12.9454 3.62462L22.6518 9.27273C22.6664 9.28152 22.6785 9.29401 22.6868 9.30895ZM22.6863 12.0168C22.6947 12.0317 22.6992 12.0485 22.6991 12.0656V12.0665V15.0135C22.6992 15.0307 22.6948 15.0476 22.6863 15.0625C22.6778 15.0774 22.6656 15.0899 22.6508 15.0986L14.1711 20.0034C14.1059 20.0412 14.0226 19.9939 14.0226 19.9183V16.9703C14.0228 16.953 14.0276 16.936 14.0364 16.9211C14.0452 16.9061 14.0577 16.8938 14.0728 16.8852L22.5534 11.9805C22.5683 11.972 22.5851 11.9676 22.6022 11.9677C22.6193 11.9678 22.6361 11.9724 22.6508 11.981C22.6656 11.9896 22.6778 12.002 22.6863 12.0168ZM22.6861 17.5885C22.6946 17.6033 22.6991 17.62 22.6991 17.6371V20.5907C22.6992 20.6076 22.6948 20.6243 22.6863 20.6389C22.6778 20.6535 22.6656 20.6656 22.6508 20.6739L12.9463 26.2965C12.9317 26.3052 12.9151 26.3097 12.8981 26.3097C12.8811 26.3097 12.8645 26.3052 12.8499 26.2965L3.14444 20.6739C3.12987 20.6655 3.1178 20.6534 3.10949 20.6387C3.10118 20.6241 3.09692 20.6075 3.09715 20.5907L3.09715 17.6371C3.09711 17.62 3.10159 17.6033 3.11012 17.5885C3.11866 17.5738 3.13096 17.5615 3.14576 17.5531C3.16056 17.5446 3.17734 17.5402 3.19438 17.5404C3.21143 17.5405 3.22814 17.5452 3.2428 17.5538L12.8981 23.1471L22.5534 17.5538C22.5681 17.5452 22.5848 17.5405 22.6018 17.5404C22.6189 17.5402 22.6357 17.5446 22.6505 17.5531C22.6653 17.5615 22.6776 17.5738 22.6861 17.5885ZM11.6207 16.841C11.6294 16.8558 11.6338 16.8727 11.6336 16.8899L11.6327 16.889V19.8379C11.6329 19.8551 11.6285 19.8721 11.62 19.8871C11.6114 19.902 11.5991 19.9145 11.5842 19.9231C11.5693 19.9318 11.5524 19.9363 11.5351 19.9363C11.5179 19.9363 11.501 19.9317 11.4861 19.923L3.14444 15.0996C3.12985 15.0907 3.11782 15.0782 3.10952 15.0633C3.10123 15.0484 3.09697 15.0315 3.09715 15.0145V12.0665C3.09715 11.9909 3.17754 11.9436 3.2428 11.9814L11.5844 16.8057C11.5995 16.814 11.6121 16.8262 11.6207 16.841Z"
        fill="#0074E4" />
    <path
        d="M40.65 14.75C40.65 20.15 38.5167 22.85 34.25 22.85H29.1V7.325H34.35C36.6333 7.325 38.25 7.96666 39.2 9.25C40.1667 10.5167 40.65 12.35 40.65 14.75ZM34.175 19.25C35.0583 19.25 35.625 18.9417 35.875 18.325C36.1417 17.6917 36.275 16.6417 36.275 15.175C36.275 13.6917 36.1333 12.6417 35.85 12.025C35.5833 11.4083 35 11.1 34.1 11.1H33.35V19.25H34.175ZM46.3842 11V23.15C46.3842 24.45 46.0925 25.3333 45.5092 25.8C44.9425 26.2833 43.8758 26.525 42.3092 26.525H41.0592L40.7092 23.075H41.5592C41.8425 23.075 42.0175 23.0333 42.0842 22.95C42.1675 22.8833 42.2092 22.725 42.2092 22.475V11H46.3842ZM42.5092 10.05C42.1592 9.75 41.9842 9.26666 41.9842 8.6C41.9842 7.93333 42.1592 7.44166 42.5092 7.125C42.8592 6.80833 43.4342 6.65 44.2342 6.65C45.0342 6.65 45.6092 6.80833 45.9592 7.125C46.3092 7.44166 46.4842 7.93333 46.4842 8.6C46.4842 9.25 46.3092 9.73333 45.9592 10.05C45.6092 10.35 45.0342 10.5 44.2342 10.5C43.4342 10.5 42.8592 10.35 42.5092 10.05ZM52.3354 22.85H48.2104V11H52.3354V22.85ZM48.5354 10.05C48.1854 9.75 48.0104 9.26666 48.0104 8.6C48.0104 7.93333 48.1854 7.44166 48.5354 7.125C48.8854 6.80833 49.4604 6.65 50.2604 6.65C51.0604 6.65 51.6354 6.80833 51.9854 7.125C52.3354 7.44166 52.5104 7.93333 52.5104 8.6C52.5104 9.25 52.3354 9.73333 51.9854 10.05C51.6354 10.35 51.0604 10.5 50.2604 10.5C49.4604 10.5 48.8854 10.35 48.5354 10.05ZM60.3209 10.6C61.8876 10.6 62.9292 11.0583 63.4459 11.975C63.9626 12.875 64.2209 14.4333 64.2209 16.65C64.2209 18.85 63.9459 20.475 63.3959 21.525C62.8459 22.575 61.7709 23.1 60.1709 23.1C58.9209 23.1 58.0459 22.775 57.5459 22.125H57.4459L57.1959 22.85H53.9209V6.825H58.0959V11.15H58.1959C58.7459 10.7833 59.4542 10.6 60.3209 10.6ZM59.8709 19.1C59.9376 18.8 59.9792 18.5083 59.9959 18.225C60.0126 17.9417 60.0209 17.4083 60.0209 16.625C60.0209 15.825 59.9626 15.2167 59.8459 14.8C59.7292 14.3667 59.4876 14.15 59.1209 14.15C58.7709 14.15 58.4209 14.25 58.0709 14.45V19.625C58.3876 19.775 58.6876 19.85 58.9709 19.85C59.2709 19.85 59.4792 19.8 59.5959 19.7C59.7292 19.5833 59.8209 19.3833 59.8709 19.1Z"
        fill="#394149" />
</svg>