<svg width="192" height="192" viewBox="0 0 192 192" fill="none" xmlns="http://www.w3.org/2000/svg">
<path fill-rule="evenodd" clip-rule="evenodd" d="M103.923 2.20684L170.45 42.4958C175.01 45.2873 177.85 50.2669 177.776 55.6991V136.201C177.776 141.634 175.01 146.613 170.376 149.404L103.848 189.694C101.007 191.58 95.1768 193.768 88.1502 189.694L21.6225 149.404C17.0627 146.613 14.2222 141.634 14.2222 136.201V55.6991C14.2222 50.2669 16.9879 45.2873 21.6225 42.4958L88.225 2.20684C93.0838 -0.735613 99.0638 -0.735613 103.923 2.20684ZM144.44 74.3104L168.882 89.8621C169.891 90.5048 170.473 91.6505 170.402 92.8523C170.331 94.0529 169.617 95.1205 168.54 95.6377L143.836 107.482V133.98C143.836 135.3 143.057 136.494 141.855 137.015L97.1503 156.376C97.122 156.387 97.0915 156.392 97.0631 156.404C96.9137 156.463 96.76 156.512 96.6041 156.549C96.5506 156.561 96.4972 156.574 96.4427 156.584C96.2497 156.621 96.0556 156.644 95.8604 156.644C95.6598 156.644 95.4625 156.617 95.2651 156.581C95.2117 156.571 95.1593 156.559 95.107 156.547C94.9413 156.506 94.7788 156.454 94.6196 156.388C94.6079 156.384 94.596 156.381 94.5843 156.377C94.5704 156.374 94.5567 156.37 94.5433 156.364L50.9285 137.002C49.7411 136.476 48.9746 135.289 48.9746 133.98V107.745L23.7216 95.6377C22.6444 95.1216 21.9313 94.054 21.8604 92.8523C21.7906 91.6505 22.3729 90.5048 23.3814 89.8621L47.8232 74.3104L34.464 58.3757C33.7814 57.5625 33.5306 56.4652 33.7901 55.4318C34.0496 54.3973 34.7878 53.5532 35.7724 53.1669L80.8188 35.4439C82.124 34.9288 83.608 35.3129 84.5097 36.3947L96.1319 50.3429L107.754 36.3947C108.655 35.3129 110.14 34.9277 111.445 35.4439L156.492 53.1669C157.476 53.5543 158.215 54.3973 158.475 55.4318C158.734 56.4663 158.483 57.5625 157.801 58.3757L144.44 74.3104ZM81.0118 42.4554L42.416 57.6406L53.8878 71.3236L91.9384 55.5683L81.0118 42.4554ZM51.7561 79.6128L31.9005 92.2481L70.5399 110.772L89.69 96.0559L51.7561 79.6128ZM55.5179 131.826L92.5904 148.283V102.129L72.918 117.245C72.3379 117.69 71.639 117.919 70.9357 117.919C70.4581 117.919 69.9795 117.814 69.5324 117.6L55.5179 110.881V131.826ZM92.5904 75.8952V75.7543V62.4345L60.0844 75.7543H60.3711L85.8781 87.1471L92.5904 90.1284V75.8952ZM149.848 57.6406L111.252 42.4554L100.327 55.5683L138.376 71.3247L149.848 57.6406ZM99.1326 75.7543V75.8952V90.2473L132.226 75.915L132.179 75.8952L131.839 75.7543H132.179L99.1326 62.21V75.7543ZM99.1326 148.332L137.295 131.804L137.296 110.617L122.733 117.6C122.286 117.814 121.807 117.919 121.329 117.919C120.625 117.919 119.927 117.69 119.347 117.245L99.1326 101.712V148.332ZM102.574 96.057L121.724 110.772L160.363 92.2492L140.506 79.6139L102.574 96.057Z" fill="#0074E4"/>
</svg>
