<svg width="192" height="192" viewBox="0 0 192 192" fill="none" xmlns="http://www.w3.org/2000/svg">
    <path fill-rule="evenodd" clip-rule="evenodd" d="M103.751 5.33893L168.832 44.388C173.293 47.0936 176.072 51.9199 175.999 57.1849V135.21C175.999 140.475 173.293 145.301 168.759 148.007L103.677 187.056C100.899 188.884 95.1949 191.005 88.3211 187.056L23.2394 148.007C18.7788 145.301 16 140.475 16 135.21L16 57.1849C16 51.9199 18.7056 47.0936 23.2394 44.388L88.3943 5.33893C93.1474 2.48704 98.9974 2.48704 103.751 5.33893ZM156.727 60.9437C156.779 61.0364 156.805 61.141 156.803 61.247C156.805 61.353 156.779 61.4576 156.727 61.5503C156.676 61.643 156.601 61.7205 156.51 61.775L96.3125 97.1917C96.2212 97.2482 96.1164 97.2791 96.009 97.2812C95.9017 97.2833 95.7957 97.2564 95.7023 97.2035L35.4992 62.1681C35.1003 61.9334 35.1003 61.3467 35.4992 61.1121L95.6906 25.6836C95.783 25.6289 95.8883 25.6 95.9957 25.6C96.103 25.6 96.2084 25.6289 96.3007 25.6836L156.51 60.719C156.601 60.7736 156.676 60.851 156.727 60.9437ZM156.724 77.7407C156.776 77.8328 156.804 77.9371 156.803 78.0431V78.049V96.3293C156.804 96.4358 156.776 96.5405 156.724 96.6332C156.671 96.7258 156.595 96.8031 156.504 96.8573L103.904 127.282C103.499 127.516 102.983 127.223 102.983 126.754V108.467C102.984 108.36 103.013 108.255 103.068 108.162C103.123 108.069 103.2 107.993 103.294 107.939L155.9 77.5151C155.992 77.4626 156.096 77.4353 156.202 77.4358C156.308 77.4364 156.412 77.4649 156.504 77.5184C156.595 77.5719 156.671 77.6486 156.724 77.7407ZM156.723 112.302C156.776 112.394 156.803 112.498 156.803 112.603V130.925C156.804 131.03 156.777 131.133 156.724 131.224C156.671 131.315 156.595 131.39 156.504 131.441L96.3066 166.318C96.216 166.372 96.1127 166.4 96.0074 166.4C95.9021 166.4 95.7988 166.372 95.7082 166.318L35.5051 131.441C35.4147 131.389 35.3398 131.313 35.2883 131.223C35.2367 131.132 35.2103 131.029 35.2117 130.925V112.603C35.2115 112.498 35.2393 112.394 35.2922 112.302C35.3452 112.211 35.4214 112.135 35.5132 112.082C35.6051 112.03 35.7091 112.003 35.8149 112.003C35.9206 112.004 36.0242 112.033 36.1152 112.087L96.0074 146.782L155.9 112.087C155.991 112.033 156.094 112.004 156.2 112.003C156.306 112.003 156.41 112.03 156.502 112.082C156.593 112.135 156.67 112.211 156.723 112.302ZM88.0837 107.665C88.1374 107.757 88.1651 107.862 88.1637 107.969L88.1579 107.963V126.255C88.159 126.362 88.1318 126.467 88.0789 126.56C88.0261 126.653 87.9495 126.73 87.8571 126.784C87.7646 126.838 87.6596 126.866 87.5527 126.866C87.4458 126.865 87.3408 126.837 87.2486 126.783L35.5051 96.8632C35.4146 96.8082 35.3399 96.7306 35.2885 96.638C35.2371 96.5455 35.2106 96.4411 35.2117 96.3352V78.049C35.2117 77.5796 35.7104 77.2863 36.1152 77.521L87.8587 107.447C87.9522 107.498 88.0299 107.573 88.0837 107.665Z" fill="#0074E4"/>
</svg>
