<svg width="24" height="24" viewBox="0 0 24 24" fill="none" xmlns="http://www.w3.org/2000/svg">
<path fill-rule="evenodd" clip-rule="evenodd" d="M15.8947 9.93962C16.2363 10.1738 16.3234 10.6407 16.0891 10.9823L15.4706 10.5582C16.0891 10.9823 16.0892 10.9822 16.0891 10.9823L16.0867 10.9859L16.0808 10.9944L16.0591 11.0258C16.0402 11.0528 16.0129 11.0919 15.9779 11.1413C15.9081 11.24 15.8077 11.3801 15.6839 11.5479C15.4372 11.8827 15.0945 12.3319 14.7147 12.7838C14.3383 13.2315 13.9094 13.7013 13.4904 14.0655C13.2813 14.2473 13.0571 14.4183 12.8287 14.5474C12.6116 14.67 12.3227 14.7942 12.0006 14.7942C11.6785 14.7942 11.3895 14.67 11.1725 14.5474C10.944 14.4184 10.7197 14.2475 10.5105 14.0657C10.0914 13.7015 9.66219 13.2317 9.28558 12.784C8.90556 12.3321 8.56262 11.8829 8.31567 11.5482C8.19184 11.3803 8.09133 11.2402 8.02142 11.1415C7.98645 11.0921 7.95909 11.053 7.94025 11.026L7.91848 10.9946L7.91259 10.9861L7.91026 10.9827C7.9102 10.9826 7.91014 10.9825 8.52856 10.5582L7.91026 10.9827C7.6759 10.6412 7.76268 10.1741 8.10422 9.93978C8.44573 9.70545 8.91253 9.7923 9.14691 10.1338C9.14693 10.1338 9.14689 10.1337 9.14691 10.1338L9.148 10.1354L9.15242 10.1418L9.17112 10.1687C9.18785 10.1927 9.21293 10.2285 9.24548 10.2745C9.3106 10.3664 9.4054 10.4986 9.5227 10.6576C9.75799 10.9765 10.0806 11.3988 10.4335 11.8184C10.7899 12.2422 11.1612 12.6439 11.4943 12.9334C11.6612 13.0784 11.8011 13.1798 11.9101 13.2414C11.9516 13.2648 11.9814 13.2784 12.0005 13.2861C12.0197 13.2784 12.0494 13.2648 12.0908 13.2414C12.1998 13.1799 12.3395 13.0785 12.5063 12.9335C12.8392 12.6441 13.2103 12.2424 13.5664 11.8186C13.9191 11.399 14.2415 10.9767 14.4766 10.6578C14.5938 10.4989 14.6885 10.3667 14.7536 10.2747C14.7861 10.2288 14.8111 10.193 14.8279 10.1689L14.8465 10.142L14.851 10.1356L14.8519 10.1342C14.8519 10.1342 14.8519 10.1343 14.8519 10.1342M15.8947 9.93962C15.5531 9.70542 15.0861 9.79266 14.8519 10.1342Z" fill="#0074E5"/>
</svg>
