<svg width="24" height="24" viewBox="0 0 24 24" xmlns="http://www.w3.org/2000/svg">
    <path fill-rule="evenodd" clip-rule="evenodd" d="M4.93043 4.27236C6.46228 2.58281 8.83815 1.99988 12.0398 1.99988C12.7144 1.99988 13.3508 2.02712 13.9443 2.08265C13.9874 2.08322 14.0296 2.08742 14.0706 2.09495C14.2483 2.11297 14.422 2.13358 14.5916 2.15682C14.7476 2.17819 14.893 2.24815 15.0071 2.35677L20.6771 7.75677C20.7922 7.86644 20.8695 8.00986 20.8978 8.16633C20.9307 8.34824 20.9607 8.53474 20.9878 8.72584C20.9908 8.74276 20.9932 8.75988 20.9951 8.77718C21.1281 9.73632 21.1898 10.8102 21.1898 11.9999C21.1898 15.4997 20.6711 18.0652 19.1575 19.7316C17.6241 21.4199 15.2455 21.9999 12.0398 21.9999C8.83888 21.9999 6.46274 21.4197 4.93065 19.7314C3.41853 18.065 2.89981 15.4998 2.89981 11.9999C2.89981 8.50468 3.41865 5.9398 4.93043 4.27236ZM18.8693 8.10658L14.6842 4.12073V5.49358C14.6842 6.93708 15.8541 8.10658 17.2982 8.10658H18.8693ZM13.1842 3.53023V5.49358C13.1842 7.76608 15.0263 9.60658 17.2982 9.60658H19.5831C19.6545 10.3241 19.6898 11.1204 19.6898 11.9999C19.6898 15.44 19.1585 17.4995 18.0471 18.7231C16.9556 19.9249 15.1342 20.4999 12.0398 20.4999C8.95074 20.4999 7.13188 19.925 6.04147 18.7234C4.93109 17.4997 4.39981 15.44 4.39981 11.9999C4.39981 8.56507 4.93097 6.50496 6.04169 5.27989C7.13235 4.07695 8.95147 3.49988 12.0398 3.49988C12.44 3.49988 12.8217 3.51008 13.1842 3.53023ZM8.90442 10.6885C8.49021 10.6885 8.15442 11.0243 8.15442 11.4385C8.15442 11.8527 8.49021 12.1885 8.90442 12.1885H12.2604C12.6746 12.1885 13.0104 11.8527 13.0104 11.4385C13.0104 11.0243 12.6746 10.6885 12.2604 10.6885H8.90442ZM8.9053 14.6998C8.49109 14.6998 8.1553 15.0356 8.1553 15.4498C8.1553 15.864 8.49109 16.1998 8.9053 16.1998H14.3053C14.7195 16.1998 15.0553 15.864 15.0553 15.4498C15.0553 15.0356 14.7195 14.6998 14.3053 14.6998H8.9053Z" />
</svg>
