<svg fill="currentColor" xmlns="http://www.w3.org/2000/svg" viewBox="0 0 19.5 21.26">
    <path
        d="M9.75,21.26a3.83,3.83,0,0,1-1.87-.45l-5.5-3.18C.13,16.12,0,15.89,0,13.52V7.74c0-2.37.13-2.6,2.33-4.08L7.88.46a4.05,4.05,0,0,1,3.74,0l5.5,3.17c2.25,1.51,2.38,1.74,2.38,4.11v5.78c0,2.37-.13,2.6-2.33,4.08l-5.55,3.21A3.83,3.83,0,0,1,9.75,21.26Zm0-19.76a2.36,2.36,0,0,0-1.13.25L3.12,4.93C1.5,6,1.5,6,1.5,7.74v5.78c0,1.71,0,1.71,1.67,2.84l5.45,3.15a2.63,2.63,0,0,0,2.26,0l5.5-3.18C18,15.23,18,15.23,18,13.52V7.74C18,6,18,6,16.33,4.9L10.88,1.75A2.36,2.36,0,0,0,9.75,1.5Z" />
</svg>